<mxfile host="app.diagrams.net" modified="2023-09-22T09:10:47.320Z" agent="Mozilla/5.0 (Windows NT 10.0; Win64; x64) AppleWebKit/537.36 (KHTML, like Gecko) Chrome/116.0.0.0 Safari/537.36" etag="WrHHwjsJ9ywdYcgdlYK8" version="21.8.0" type="device">
  <diagram name="Page-1" id="Fv5VAmr2xFqL5manSzsR">
    <mxGraphModel dx="281" dy="557" grid="1" gridSize="10" guides="1" tooltips="1" connect="1" arrows="1" fold="1" page="1" pageScale="1" pageWidth="850" pageHeight="1100" math="0" shadow="0">
      <root>
        <mxCell id="0" />
        <mxCell id="1" parent="0" />
        <mxCell id="GWEOKNoBrJnXbYC3_1-h-5" value="" style="shape=image;verticalLabelPosition=bottom;labelBackgroundColor=default;verticalAlign=top;aspect=fixed;imageAspect=0;image=data:image/png,iVBORw0KGgoAAAANSUhEUgAAAasAAAFACAYAAAACklMsAAAAAXNSR0IArs4c6QAAAARnQU1BAACxjwv8YQUAAAAJcEhZcwAAEnQAABJ0Ad5mH3gAAFSZSURBVHhe7d0PdBPXnTf8L/KWkK2BkNKzHsGecqhjkT1A/tgvzqa8fYWdyGFTEo4JSZus7VQ6bdpCy8YPlh/TdDfbUKgtP87TXbJJyJECdsgGjH1MCAUrseM3hbRmpYYNbEB+/OS4zxqJt7j8sb1NQmPNe+9oZjSSRrLkf4zN78OZgzX/NP90f3Pv3Dt3lsiAEEIIMTCT/D8hhBBiWBSsCCGEGB4FK0IIIYZHwYoQQojhUbAihBBieBSsCCGEGB4FK0IIIYZHwYoQQojhUbAihBBieBSsCCGEGB4FK0IIIYZHwYoQQojhUbAihBBieBSsCCGEGB4FK0IIIYZHwYoQQojhUbAihBBieLo9Bc+aNUv+ixBCCBm/8XZKn5Czol7uCSGETDQeW8YTX9SclXZFWVlZ0v/jWTEhhBCilNR9/vnn0t/KkCk1Z8UDUzgcxp/+9Cd5DCGEEDIxeLAaGRkZcyYoJljxlV27dk0eQwghhEwMHluUgDUWarDiK+C5qs8++0weQ4gRXEPI/0scrK+AWVOEMMtcgfqDh9DZMyjPRwgxsk8++UQKWOMOVjzi8UDFV0iIIYTPo3PbOpgLHsTGqkaE5NGSUCOqNq5HseVrqPCcwbA8enoJY7BzmxqEzdWdoNBLZiolWPFYMxYJOatPP/1UHkPIdcQD1TN2FO/0yiOSOYNGx7ewpfV3LOknhBgVjy0TkrOiYkBiHNdwvm0n/lYTqITyBngDV6Vnq6I4gqHAMbjKl8tTz8Cz2YW28/S8lRCjUoLVuHNWvCYgD1hjXREhEyb8MdpfblWL/QR7C/7t1adxf948eYwJ2Xkl2PqCGy6rEBkVasXL7R/H5a7486634KkuiT7r4sVtFfU42NmTWHQ42IlqszLfo/D0xJYyhHs8KFHWU+JBj/plA+isLtAsN8i+txX1FSvkcWasqfbEPF+LrCsL84t3qvsZqivGfDZ/fHFgOOTHIU811ijfLa3vFRzyh+L291P0eB6V5ylAdecAW/Yk9kr7b0aJ5xzlPsl1wzNDPMbwWDMWarBSqq5TsCLXW7j3fez3Kkn4g6j8QREWqVeqRvZKPFS2Wv4Qgnf/++hVfweDOOf5PvIL1sFRF1uUGGqswsZiK9ZVt6JneKKT7z/h0vHn8XjBBlQ1npHHhdBV50Cx5XHU+6/I49IRxvC5vfh2fgHWO+rQJY+NrO+7WF9gw7dTPK/7vO8Innl8PZ6M239CrgceWyYsWCkDIdfPp+g9fgxq8iqsxN23KTmqeHOQZz8QvXbb7ciTruhrON+6DUUOj5prScQT/M146iXfBFfOaEOV41lNYNE6gqptLECm+1sd9uGl79egMelO8Od1T+I5loNK5EcDm7azK/kRIGQqjTe+xNyvjndlhEy4FblYnK2XrUohphhRgNXZgsBQpDGiOBJEd0M5G8uxgNXQCO9EP+sSytHQHcRIwvcxp3vRz3Jzpjw72sURXO2oUacJzg5cZcsEa4swjwdcbyMapGATtw9DAXhdyjr9qKt9M0kAXI5y1zF5uSDa7ctif/CETCElvow1xtC1SwxmGP2Bj+W/xyamGNG2HS/vLEWeEvBMAlY9/T/wmjM/8ln3Wdd4COwra7BllRD5cfHvc1SgTIlIoV70XUgnOA4i0P2bSMAVnsRPfrw+ug/Zebi/sgbbbfJKvcdwvFenFq/tafy4siS6HCHTGF3FxGCysdiyVP57LLTFiCxwPHYvchOu8ltRUGKTcyYhnA4EJ7Ao0Iw7lywc/w9r8EO0N/kjf4d2onh+llxxQh6ybodDfa73MQL9iXsg3LkEOfQLJzMEXcrkhhc61YcLE13PghAyoShYEYOZg9zVD8Amf0paxCXRVtUe+xsgDJ8DsbkRGImW9ycOPtQWLZRnJmRmomBFDMeUey8eU57HoBnP1P4S5/VyPsMf4s2m4/KHfJSVrMQ8zEbOkly1iC+2OrviEnztXrUCxgqLGdn8z2wzLCuU740vWgtjuL8Xp+VPk067LSkDNiE3BgpWxHhMS1HyVKkccFjI8WzG39ZoG9WywNHTjvpNDlQpVbOtT+DRVbeyP0yYt2o9KpXGwt5n8FSNpj1VOISTz/83/G2d/DxIKMVTJUt1fgh+NO09gnPScvz72vCz5/bIAW4KmJZg9WNKGzIWsH/2It5W938QPa3bNI2EExswEzLTULAiBjQbi9ZXYZddeZ2S0qh2vpw4Z2Gu5QFNo9sH4ar/NvLV2nJ34ls/VIIdX3YDLHPlCgpZZhRWKi/FFWCtLIdt0WzpU2yAYEs2PonbpeX4921A3SS3WYp9g8Uc5D26VX1DR6ixEjZ1/+fDsmGn3JaL7YNrKx7NmyN9ImSmomBFjMn0FZT+ohktTvXpVRI21HS8jMr8W+TPHAt2pTvQ6baruTM9QvlOvPi9gkgRoCQ2QMRaDvvuXahMtcKMmZC9OBcr5E8JsgvwvZd3wam7PRGJ+0DIzETBihhX9jKU1h5G0HcELW4nrPJoiVAOV/MR+IKHsaNokc6FPA/L7C/C7zsMd1zAE8pdaO4IoGdvBZbFt0HKXoXK1w+jRW10y1id2OPz4pXHbsefyaMmiinvEfyztwHluvGIvwOxFLWHu9DR7Iqdh22Tu80H/6s6+0DIDDRL5NWJmIGBAVy+fFkaCgsLpYnyJEIIIWRMeNE1d+LECSxYsEAacnJypHGZoFsyQgghhkfBihBCiOFRsCKEEGJ4FKwIIYQYXsoKFoQQQshEmNAKFjxuUQ1AQgghE433EDye+KLmrC5evIhLly7hypUruOeee6SJFLgIIYSMh1J1/Ve/+pWUq7r11lshCJm3rk94ZsX7yCeEEEImEs9ZjYcarHguiq9svCskhBBC4vGM0HiKAhOCFRX9zQRKP09mlHjOTWCX7YQQMjY8townviRUsKCc1fVixABDQY8QMjGUzNBYA1ZMsDKZTNJAprs5yLMfYBdFEO32ZYkPJgkhZIqNN7ZQOkYIIWTSKZkhpXZgptRgxVcw7XNWwz3o9FRrelBdgYr6/ZoeZrUG0dPpQfUaszzvLJgr6nGwswfazsyjRWEFqO4ckMdphTHYuQ3mmKKyAXRWF7BlIj24hkN+tNZXsHnk7TJXoL7Vj5Bcrhbu8aBk1s2wOJrZpxC8jtuRFbM+ZRvYsiUe9IxaHqdXfDfR20QIIelT0tmxiglWfJiuwSocehvb1llR7KiTe1DlzqCx6psotjyOev8VeRwTPo/ObRthKXbE9P4aaqzCxmIr1m17W020x+dPuPShG9/OL8CGKqV3WibUiKoN6/B4w8m4wDgVjLhNhJCZbsJyVtx4I991E/4d2p6pxM6uL6G84TiCI5GHeOJIEN0NvBO9I6ja1irnSK7A3/AUind6IZQ3wBu4Kj/0+wxBXyOcVqBrZyWeafvdBOQg2lC18Wf4P2WN8AU/i35Px7OwsjDR1dCGk4NhmPLsaBc/QcC9kS0jwOY+i5GY503KMyi2fLsdeeO6n5iobSKEkPSNJ1BxarqjBKrpl7MKY7DrZWz2/AFWlxsvPP01CMoumASs2lKD7TYBON2L/mEWfgZ/iwMNR1j6W4PX/nkL7s+bJ888G0J+GXa+tgt24Qw8L3egdwJyV4J9F17bWYZ8YbY8hn1P0Sb8xJnPcjNetPsuyeOnjhG3iRAysymBaqwBawbcJF+Cr93L8gSrUfbQSmTLY1WmZbC3ByEGd6CIxaVB3ztoCrGcwvZyWOcl7r5p0dfxRBlLtL3HcLz3U3nsWOWj7ImvY1HC12RjsWWp/PdUM+I2EUJIatM/WIUH0HcqyLILuViSo+QUkrmGC329LLCZceeShUl2Xkm0P0agf7xPb5bCsjghfF5nRtwmQghJbZKClVJDLlK0GB0iNdGun2H0Bz6W/yaEEDJdTP+c1YSjgEYIIUYzScHKhHlFOxCUappphwOw582R55kgpoVYcqcZCPWi78I1eaSW3L7IvA2dg38uF/EFcapvQL+2n1qsaENJwa3yyFSUokVCCCGTZQbkrG5FQYkNAo5j//G+hAAU7nkTtXV+YEUuFmf/OXJXPwAbCy3epqP4gNcOjBHG8AdH0eQNQVhbAEs2PzyzkbMkl60/SYAb/hBvNh2XPxBCCJkMMyBYsVzcqvWotAJexxbUtJ6TG7WywNPTipqnnoEXy2F/qhi5bG9NeQ+hmlfR7qrEuk0v4mRIyY1dQ8i/D89tdaELD6LyB0VyjTkTshfnYgUPcM/sxC9OhuSAxdffjvpNDlRpGhZPhGuXBvFH+W+jMOI2EUJuHDMgWDHZBfjeiztRLnhRt+F2zJUqc2RhrmWD9IYKwf6P+On6r8g7uxBFP/kXuKwCQo2bUWi+ic3L578J5oJyNv+XUO7+Ob6Xf4s0N2fKK8UO14PSWx4qC83IUtf/AKre/hp2797Ccl7jNUfN9XVVFbJ9GM/rliZKqm0ihJCpMzOCFc/9LCvDC10dcDtt8jjG6oS7zQf/K6Wx7YqyV2Hr4S50NLtYgJPHsXBjde5Gm8+LV+3L49pr3YL8ylfga9HOvxzlrhb4/P8Tj331z+Vx42PKXYvnpDduGIcRt4kQcuOZJfKaD8zAwAAuX74sDYWFhdJEeRIhhBAyJrxEiDtx4gQWLFggDTk5OdK4TMyQnBUhhJCZzEDBKllD4lRDsm47CCGEzCQGClbJ2malGnyoLVooL08IIWSmomJAQgghhkfBihBCiOFRsCKEEGJ4FKwIIYQYHgUrQgghhkfBihBCiOFRsCJpUN5NSO8GJIRcHxSsbjThc/CUmFngud69NhNCSPooWJE0zEGe/QBEMYh2+zK6aAghU47SHUIIIYY3jYKV3D29XHwVDvnRWl8RfZeguQL1rX6E9B6oDPeg82A9Ksya9wquqYbnUOL84R4PSvh03m/U5yH4WzXLsWX2+iOdL8Z/v7niebzdMxhZSbwwW8+hV1C9hhe/8fnNWFP9Cg7J64o1lr6reMeRb8FTXSKvnw8lqPZ0okftDVleb9btcHh5Z5HNcFhuZvPJxYExxYODbH1Nke01b0Pn4B91nlkp73KUx/F91B6rWStQUd8Kv9q5pdYgejo9muOhzMvGS99D73wkhMQRZRcvXhR7enrE7u5u3i+INBjLRbHDmc+2a73oat4llguRbYwdBNHq6haH5CUkQ92iyyrozBsZBHuL2D8iz8uMBNyijU+zbRfdOx9MXEbYJDZ3HxZr9NbJprX0fyavSTZ0WnSXL0+cVxqWi+Xu07HbK34iBtwbI9NtbjGg2TZ9n4nBjmdFa8K6I4NQvkc8O8RXollvzLBRdAc+YTt+VnTb+D7ZRKerMro+oUbsuPpf8rKCaHOfFSObNCJe7agRBT7O1SjuTraP1gbRJ32/bKRf7KixJZm3UnQ5+bR80dlxUV6AEDKdKb/vEydOiB999JEYCoXkKZmZhsGKbxsLSs5G0RdUAoMmwZYSVyVxjCbQQvkusVudf0QcChwTXVICG5swqsGKD1anuMcXjCTOQ2fFFikhVabViC2Bq9Iy0WnaxJy7LPpcPOCxoOQ6JgbURPuqGPA2yAH3QdHluyyPHwMlyAh20X1W3h5mJHhcbJD2L26b1KAkBymFOp5vEwtYe7rFoLqQchz1gpVyPDTHik8NeuWArj2+n4n9LZukZYTyBtGrHD9+/nyNolO9AaBgRchMoaSZN2Swis8NRSjTNQldsoRZoskZaBLzaLBKDCLRaYnri+bIormhyDid3J6EBUxfgxRgBWcHC19jo3yv3jr0tmn0YKW3vaMEK70cpWa6um3Kd8TcUESN9LeIdimAU7AiZKaYqGA1DStY5KPsia/HdlMvycZiy1L5b5lpGeztQRZ1D8CeN0ceqbiGC3294E9vdAkrcfdt8+QPcWwPYHVu/PrifYre48fgxWqUPbQyrpt8zoTs2+7AKpaah0714UJaz6aSCzXthftk7DMwU54d7fyGpN2OvLTPdLLtTU4oK8V9i2bLnxRs/xbnYoX8iQv3vo/9Xnb4tpfDOi9xg0yLvo4nyvLlT4QQEjUNg9VSWBZnkpRy/IH+IbS2tqJVrWhxMyyOZnm6jhW5WJw9nsMzjP7Ax+x/pSKDUvFAM8wvRh2Plqd70a9WhMiMKa8UO1wPsmjViMpCM7KkihUH2b52aSpXTCYBKyzmNIJbGMP9vTgNM+5csjDJhadzw0EIIcw4g5VSQy8uEU67FttkYwlkTyuq1yyDpXg9NmzYgA0bq9DIA4S1Ei6nLTLbZAgPoO9UUP4wmW5B/tbXEeh4A67y5eyzF3WOjWxf18AyNwvmihdwUrdG3lQbJSdLCCEpTMOcVQaGfXjpqc2o6wpBKHehuaUFbb4gRnjR2Ls/w0OW+fKMk8C0EEvuNLM/NsId+IQ/AEw+BHegSKdYLH3zkFf0GLbuPc3Wd5UFrja0NLtQzosYGzej8MnXDHLzQAghYzPOYLUQRbW+xMQ3o2ckkyWMwZNtaOCByt6Cf3t1Kx4pLcXD+cIURWilSOtjBPqHI6OmBA9cD6P0ka3Y29+HFjvLbXmP4Xjv9X610mzkLMmFgCBO9Q3EPFuLUopOCSEk1gzOWSnFTgJWfO2vIMTv6fCHeLPpuPxhMsyG+Y6/hhV+NO17D+cTUucwhv3PY82sWTBXdyJJc+JRKA2IkzSiNX0Rtyy8Sf5wvZkwr+A+lAkheJuO4oOE52n8eDThuTq//JkQQqJmcLCag9zVD8DGwpW3qRFt6tsl+NseWlG/yYEqluuaPCZk31WKH7KcTcjzD9jW0K6p8DCInrd/gU3rKtGFB1H56N0sPzQWyj76UfecS327hoS/UWKvK5L469Ze/CMuDU1xbmveSpTw2n5dLmx9bp/m7Rba40EIIYlmcLBiO5dbguoaG0scd2KDZX6k8sesm2Au2IAGfA+/7tgVCWaO25E1GZVCTF/B+u0NqLH+AY1VD0gVHiLbMB8WWyUaQ8tR7v45vpd/i7wAl9nrltTagF11eLKA1waUK7lkmVHwZJ0UDF07SqPFsqYlWP3YavbHEVQVLGDzTuXb1xei6Cd74C7/EtvcchSYb4o9HpZn4Xatl+clhJCoGR2sYFqEou174NvjhFUeBaEcrhYf/K9uwj3W9ZFgNolMwv3YcbgLHW7NNkCA1bkbbT4vXmU5r0wr4sdSagO64bQK8jiOBULXG+gIvI6tMcGQ5cbWbkGDVHPwOsheDvurXvhaIhVAIvi2tsD3+tNYfesX5HGEEBI1S+Q1IpiBgQFcvnxZGgoLC6WJ8iRCpghvCvEAiuuWwh1o1GnITQiZbnjpCXfixAksWLBAGnJycqRxmZjZOSsyvQx/jN+eDLKMZy6W5MS/EYMQciO7DsEqSUPiVIPUTcVEP1AiU26wE9X87SGarlYieOPtdrnSS/LXMRFCblxUDEim0DWcb63E/7XhhaRvshDK96DzhTIsG9errgghRsEzHBwVA5JpZDYWlTbA7zuCZlc5tNVBYHXC3cYrvlRQoCKEJKCcFSGEkElDOStCCCE3DApWhBBCDI+CFSGEEMOjYEUIIcTwKFgRQggxPApWhBBCDI+CFSGEEMOjYEUIIcTwKFgRQggxPApWhBBCDI+CFSGEEMOjYEUIIcTwKFgRQggxPApWhBBCDI+CFSGEEMOjYEUIIcTwKFgRQggxPApWhBBCDI+CFSGEEMOjYEUIIcTwKFgRQggxPApWhBBCDI+CFSGEEMOjYEUIIcTwKFgRQggxvFkiw/8YGBjA5cuXpaGwsFCaSAghhEyEEydOYMGCBdKQk5Mjj01fTM6Kxy05dhFCCCETJhwOjyvGqDmrixcv4tKlS7hy5QruueceaSIFLkIIIeMxa9Ys6f9f/epXUq7q1ltvhSAI0rhMqDkrJeKNjIzIYwghhJCJMd7YElMMyLNpfCAzyafo8TyKWSUe9NCpneEG0Fn9NaypP4lheQwhRsEzQ0pR4FjE5Kw4YwWrQfR0tsJTXSJlJdVhTTU8rb+EP3RNno8kEz7/S9Q+8zGc1Q8hbwrrfoZ7PCjh54qC5BRaCKvDgdlV9TjQ86k8jhBjGE+g4mKC1XhXNpHCoRN4vuJrsBRvgKPOK4+VddXBseFBFJjXYVvneUyPtFDO4cwyo8Rzboq2eQBd/7QDnhU/gMO6UB6XofA5eErMbLsfhYcSQMMz5T2EaufHeKb2lzhPNwnEQCYsWPEci8lkkv6/3sKht/HM4xtR2XgGsDrhbvMhOBJ5psaHkaAPbW4nrPBiZ/FTaPBfkZckWuGeN1Fb9xnsTxUjdwpzVZwpz452fr7a7VOaoyM8d/UDrPDswD91DcjjCLn+lPgy1oAVk4woAeu6Cv8Obc9UYmdXCEL5Hpw9vBP2h/MhaDbLJOTjYftOHPY1sIB1BFXbWqmoKQHLVbn/BV5hHZ647y9jTzSZ0Uy59+IxWxB1tW/S74IYhhKsxpohUtOw8a5oooR7O/Cyh+WohBq89s9lWJadLJk1ITu/DD9x5gPeYzjeG1dENdyDTk811sj7NGvWClTU70dnz6A8g0wp5jJvQ+eg3i+bP7QuYMtri8Fix4VDfrTWV8CsfJe5AvWtfoTk1UWe39wMi6OZfQrB67gdWTrFgXw9h2K2uQTVnrcSn83FFM0NIuRvQvWauH0Y/BDtTX4IZfehYF78MbzGlnkr7lkg/65O9AwrWyQXW2bdDoc3xD43w2G5Wf5OdhxG2YbEZ1ZhDHZuY8dI3u9wCP7WelSYle/n56c1yXNI/uzSE1l/zLxsvFS0WoDqztFyEZmdsxj8Wjqo3VY28OemhxLnj9nvz+P2kS2z1x+Sznn895srnsfb8demgh+rQ69o9t+MNdWv4JC8rgSmJVj92Gr93wUh14ny2xkzliWT/P73vxfPnTsnvv/++zyPJg1jMnJWdNsEtvxG0R34RB6Zrk/EgHsjW1YQbe6z4og8NlMjQa9YY+XbENmP2MEm1nT0R9etbK9QI3Zc1fvGi2KHM58tp90fZdx60dW8SywX9L5HEK2ubnGIzT0ScIs2nenRfRwRh87uSbIeNgh20X32qjSnRD3GNtHpqhSt6nzKPoyIVztqRAH5orPjYmQZ1WdisOPZ6DJxA8vNimeH+DqUcxE/j3wcRtkGdZ9tbjEg7aSyTWy/XY3i7vLlmnVqBmuD6JO+XzbSL3bU2JLMWym6nHya3n7Gy+ycqYa6RVfSa4kdL3uL2K/dXHW/t4vunQ8mLiNsEpu7D+tfn2xaS/9n8ppkQ6dFd7JjheViuft07PbKItsxvt8RIRNBuV7fe+898T/+4z/EYDAoT8lMTLAKBALir3/9a3XlYzKeYKUum07ik4SauLAfsuuYGFASvpGg6NvjjCSq2kRhXMGKHyeWwDkbRV9QSWQ0wSBmnSkCsbLNQrno8gaiic9QQPS6ylkCz9alTcTV48S/nwWLPd1iMGaFetssU/c3NgCOBI+LDVKiGLd9yc7nKNuQPFjx+fn+OMU9vqD6PdEbDO25/0zsb9kkLSOUN4jegLK97Bj7GkWnmuBnEqz4/JmeM/79u8RudX52cxE4Jrqk4xX73TE3Jtp9HDortkiBVZlWI7Yo+6NOi782Los+Fw94cdeyeFUMeBvkgPug6PJdlsdrXO0QnXy6evwJuT6Ua/5Xv/qV+NFHH40/WF28eFHs6ekRu7u71ZWPSbLELR3KD2wsy0qiCaLg7GA/6XhK4qdJFNTEe2zBKv7OOkKZrk3IkgUrZXySREdNsDTrUo+xTk6AS7FPSmKqd3wSAwwfmeR8jrINKYOVXg5C79yNcm5G+ltEu3S9ZBas0j5nyfZdoskpas5nNFglns/otMT16R37yLgk55h945CvQQqwutf6KMeOkKmixJMTJ05IwSoUCslTMjPDnrtfgq/dixA2YrvjXsyTx0bNxqL7SlEmhODd/z56dQv8M5GPsie+jkUJRzEbiy1L5b9HEe7D8f3HWeakFA/ddYs8Umsebrt7JQQEcapvIO4ZxWqUPbSSfVuc4SACp/lzpuRCTXvhPhn7zGNsNfiSbEMKQlkp7ls0W/6kMCF7cS5WyJ+4cO/72O9lh2Z7OawJz93YEou+jifK8uVP6crgnJmWwd4eZHdtB2DPmyOPVFzDhb5edq0lIazE3bclXoES2wNYnRu/vnifovf4MXiTHl92vG67A6tYdA+d6sOFZNdyqBd9F6g9Ipn+jBWsss2wrGC/vrEKD6DvVJAlFLlYkhOfGMqU7zjdi361MsFYLYVlcSbJtA4lsHgdsGTJD+JjhizML97JEsUQTgeC434zgSmvFDtcD7JErBGVhWZkSRUrDqK1tUtTuWIyCVhhMacR3MIY7u/FaZhx55KFSS7UDG4KVGM5Z7yCxyF2jFrRqla0UCrMJLEiF4uTVg5KxzD6Ax+z/5WKLfHXBRvmF6OOR0u9a9m0EEvuNMsfCJn+xhmslBpWmh9QQu0xzbSkNe7ifYxA/xiS5TRyFEYTvtCHU1O6ybcgf+vrCHS8AVf5cvbZizrHRmzYsAaWuVkwV7yAk4Z4M8goOZcpwQJmTyuq1yyDpXg9O0YbsGFjFRr5Rlkr4XLaIrNNBuXGa9zG+FsixGCMlbNSqtzqFnnp0atWPgqDBTRTzhLcyTOTNjcCmobPekOwtkinaHMs5iGv6DFs3XuarfcqC1xtaGl2oZwXKTVuRuGTr1H7HG7Yh5ee2ow6qc2fC80tLWjzBTHCz8e7P8NDlvnyjJNAzRlthDvwScK1EDMEd6BIp5g0YgJy/4QYwDiD1UIU1fpifzgjZ+G28dRX50eW8kfFzUHu6gdgY/fT3qaj+GC0Yim5LZFa7KcU8aUop1dyMvrtj3RM2B1uEhNaLDkWPHA9jNJHtmJvfx9a7Cy3ZYj2ObORsyQ3ybM6hVJUNhnCGDzZhgYeqOwt+LdXt+KR0lI8nC9M0R2eUsQ5xpzRZF+3hEyxqfndZcCUW4yneILZ5cLWHR36jTS58Hl0/rwWdSEh+gBezZkdR9ObH+o837mCD95shRfLsbbwq5HnJsodrG6AC2P4g6Nokoo1J4kpB3fcfzf7/sPY985/6iTKV+Cv/wbLPabT8FWWNGgr7ydMsi7TF3HLwpvkD9ebCfMK7otUhtG9cWHnxt+E5+rYzcqkUIohBaz42l/FvEFFMvwh3mw6Ln+YDLNhvuOvYYUfTfveQ+J7/vj+Py81IDdXdyJJc+LUz28JmUYMF6xg+grW//QfYWeJVNdOG/K/XY+DnT2awCO/faHGjuKdXgjlO/GLR/PkHZmDvEe+BydftsqBTc+fiAY7/haAvTuxteoIYLXjBzblFUTKHWwznvmZW/O8ZhA9b/8Cm9ZVokseM1GuXRrEH+W/+TOku75lZ/t7Bp7Nf4+GtzX7OtyDt+u3YJ20zU/g0VW3yhNGoQbteErO1Y+651zq2xQk0vFxRRJ/3dpqf8SloSnObc1biRJe24/fuDy3T/N2i8k7N1HaXH4j2tS3S/DrrxX1mxyoYrmuyWNC9l2l+CG7cQt5/gHbGto1FWC0+/8gKh+9O7F4WCnuHndFD0IMQpQZop2Vije6bNE0+tQfom9b0Iq2P9FbJuFtEFyKtxQI9l+IuyuTtbNKto9K26kUDUZj2uekfqtE8jdYJPt+/TZAEUq7LZ3vkYb49kHRhrGRQf7OUbYhsd1Qqm2KUJaJaTeU6g0O1mdFt2s9+zuTdlYZnLMUb8/gjYR/3bErej7l/dRrL6UYy7TUb2OhN1gQ41Ou1xnazordVeaVorbDD1/bbrCgJY/nBFidu9HSEUDP3gqddwfydwZuweHAu2h2lbO5FTY43Yfh878I+7K4+9DsVah8/TBatPML5XC1+OB/5XF89c/kceNkyl2L5xq026SYDaHoJ2ybO+COqWGWYptTihahJVZ3V2oDuuOO63KUu95AR+B1bM3XtvdiOYy1W9Ag1Ry8DrKXw/6qF76WSAWQCL6tLfC9/jRW3/oFedwkMC1C0fY98O3hb/iXKdfFq5twj3U9qmu052vimYT7seNwFzqkXgYUkd9Am8+LV1nOK7H6RLSN1mOrl8glCIRMb7N4xOJ/DAwM4PLly9JQWFgoTZQnkWmJP+v6WxQ0rETHue2jVGyZrnht0AdQXLcU7kCjTsPdGxR/yfDaIjiwHYGj1EULub54syWO5aywYMECacjJyZHGZYIu4xnrFtz1UClsSStuzADDH+O3J0dpBH4Dirz5wzzlvUMTMpnoUp7BIm+r+Ao8L3dMwKulroPBTlTzt0VoutaI4I112+VKDkj6OqYbk9yPmW0cvUMTYkD0C5/RbkH+dyvhPP0vcE/HXmPnrcaPdm2C0FWHJwv4q6GUt6FkYa7lAVQ1nomrDUrC59/DvqYcuHaUUq6KzCh0Oc90UoJ/D5qmZa+xs7GotAF+35G4yjKM1Ql3G6/ooFfJ5kZ1BR/8qwdHyyrx3ZhKMoRMf1TBghBCyKShChaEEEJuGBSsCCGEGB4FK0IIIYZHwYpkLNzjQYnSLYtUvfwbqPdfkacSQsjEo2BFMhP+Hdpqn8dp5/fwCH9jxLx74dj+56ja1kp9YBFCJo3xghV/VUyJGbNmmVHiOTcz37xgVOqxT9aZZRiDXS9js+d2bHfcK7/pW37T/ennUdv2OzpfhJBJQTkrkr5wDw7W7gHs30SJtgsRKXd1OzybX0bXIIUrQsjEo2BF0sRzVY14xmtG2RNfx6KYK0fu+ym0B7UHeyh3RQiZcNMkWLGEsnMbzErRIO8osLUeFfy9cdLrd1agor5V0zmfFn+PXCc81SXyvGwwV6D+YJemMzueaeCVBti0Eg96PucdEVbr9sIaDvlxyBOZFllfCao9byV+d0yR2mCkw76KFdFl9p6MdAwZvy9827QdMMaQO57U7suaangO+eN6VM70eMk9CGfdDofUK3IzHJab2Xza4sBL8LV7ERJsKClI7ATSlHsvHrMB3v3vT8/3EBJCjI2/wYIzTOeL6vLajuM0Hfe5GsXdSTvjaxB9MZ0xjtKpoWZ+tfM7a6XockY73It2BDgiDp3dI5YLmuW1Q9IOEteLLrfeNiwX7c3viV7dzv3YtJa+uE7zropn3XZ2DOLnjQyxHVFmerziO1hUBs05vNohOtm+x3SMGENZxxjPOyFkRlLSkxna+WIyIXiryvHd//M32OMLgiWz0iuhRoJe1PCOBLv24cDJS/K8LH9x/i0887fPoksoR0O3dv7jkc4Eu1zYdiCu2KqrAVUn71TXH6wtilQkGPbhpe/XoBHlcHkDGJLXJQ4F4OXvrQt54Pi+G35Nbi2iDVWO97FqTzeCI3yZqwi01MCKM/Bs/DpsOwFny1l5fZppMW9KZ7lDvxvfd3iA8gZ4A1cj3y2OYChwDC62L6HGGnz/JV9cjizd4zUHefYDYAEWLMCyzxvBAg6b94DcRxTLqfneQVNIwAqLWaezP242cpbkQsBx7D/eF3tMCSFkvFjiJZkeOSu2XcImsaX/M2lsVHR69M5f6cY8vpv2CCUnpcyv5qx051dyDfrrinYVr+0SPbofVld3bNfjuvso0zt+yriEnKNM6ZZfqBE7rvLpYzlejN53S3S6fNcRf0wJIUSJJzdYzool72WluG9RfEd7JmQvzsUK+ZNk8EO0N/kBWykeuivxDdSmPDva2XFUc04KvfnDfTi+/3jSdYGt4ba7V7JcRRCn+gbichVmrLp7aZLcSHrdjkc602NfX7YWd+m9YTx7Ke5eZWYZqV70XYh9dpb28UppGP2Bj+W/Rxc61YcLlLUihEygaRasUhVDxQpf6MOpEFviziXIGe9eDgcROM1W5nXAkqVUUtAOWZhfvBMh9u90IBhXFLcUlsXpbHEyYQz39+I0L9Jz3K7p00k7fBnFdSww42ME+rXfnv7xmgimnCW4k5ciEkLIBBtnMj6AzuqC2IQzoUaZZpp5GzqnYTscJfBdH9dwoa+Xhapp5HQv+hOe3RFCyNhNs5zV9aHmGGxuBKRKEsmHhGLFcVMqLgjs68+qlST0Bx9qiwzQlfmKXCymDhEJIRNonCnKQhTV+mITzIQaZZppwR0omjc1iZgSYJI+P5FewJrYjkpXthmWFWxl1yXHoDxf0itiNJbrmwMlhMxkM/f2d95KlJTlA95jON4b/567T9Fz8CXUpayKrWHKwR33380i32Hse+c/daplX4G//huYNasA1Z0D8riJYzIvx/1WAaGmVrxzXqfh8/BJ1K8xT2IxazYWW5ay//UqkCSakOeEhBCiMYOTlFux6tEnYOXPzp76KVp7lPzTIHpaf4qnHM0sVS3FUyVL0zgIt+Cub9lhF87As/nv0aB9w8RwD96u34J1VUcA6xN4dFXi2x3GLftOfOuHpRBCL2Dzthfwtrov/O0c7ajf5EBVF/v6yvVYNSE51z/i0pA2wMuvU5I/6VMqgkxtpQ5CyI1hBgcrE7LzHXjRbYfQtRMbLPPlih7zYdmwE11YDvuuKqxPqNatz7ToG9j+2rOwhhpRZbNgrlJpZK4FtqpGhAQ73C86kD8pz2pmY9H6GrxWY0OosRI2dV+yMNfyAKoaz0Ao34kXv1cwviBhWoLVj61mfxxBVcECtv7o65YixaqhFK9TUiqCpFcdnxBCMjHD05R5WGZ/Hl0dbjj5GxskAqzO3WjzefFK6VcyOACzIRT9BIcDHXA7tXkMG5zuw/D5X4R92cRWrYhhWoSiHc0IxOwLY3XC3eaD/9UKLBt3oGQ5qLVbIm/3iKcUqyZ7bqe2RXsAq7VvZCeEkAkwS+Q1H5iBgQFcvnxZGgoLC6WJ8iRCGP7Kp19gXcE+rOo4llDrkL8IeK3lGcDdiaP2ZZSzIoRIeCkQd+LECSxYsEAacnJypHGZoDSFpMmE7LvWoswWRNO+93A+JnP1KXqPH4NXeBLVj+TRRUUImXCUrpD0mfLw6I4qWDxvoF1bw3LwfbifOQ7b9nJYp6hpAiHkxkIpC8kAr7RShp84P8Yz7vfl9mnXcP6dVjRZqrDjUcpVEUImB6UtJEMLYf3RNqxtegkHeU3B4VP413/+AGU/KZukmpCEEEIVLAghhEwiqmBBCCHkhkHBihBCiOFRsDIQ3lapRH1rBO9+5WtYU3/S0C+vJYSQqWC8YBU+B0+JWSrnTDmsqYbnkB+hyXhv6/UQ/h3aap/Haef38EgefwPEQlgdDsyuqscB+ZVHhBByo5q+OauuOjjWFyD/23txzugd/akBOPquvVhhDHa9jM2e27Hdca/aH5Yp7yFU82ritb+Ma4RLCCE3FgMHK53+sNThKgItNbCyuUKNNdhyoGfUbisMLdyDg7V7APs3URLzXj2eu/oBVnh24J+6Jr7rEUIImS6mac5qHvJK/x4vuzeyv1O9CXw64LmqRjzjNaPsia9jUdwZMeXei8dsQdTVvokeyl0RQm5Q07cYUO3undF7E3g4BP+hV1DNOyWUnnOZsab6FRzyh3RzYeGQH4c81VijPhfj83vQqfYdFe8aQv634KkukefXe472KXo8j2JW1u1weHkXus1wWG5m82qLAy/B1+5FSLChpECnLyyl2w7dTiQJIeTGMPHBatTnM5NgRS4Wa9+eMHwGnm/bULD+u6jrUvpZD6Gr7rtYX2DDtz1nYmrYhUNv45nH12G9ow5d8rjI/A4UW5+G51x8wBrEOc/3kV+wDo46rzyOGctztMEP0d7kh1B2Hwp036undHx4HPuP903v4k5CCBmjaZyzGsT/+u2HLKTEd6N+Bf6X/jscjUC56xgCQyPR51zeBpQLZ9Do+O94yX9Fnv9T9B59BTu7voRy92kMKc/FRoLobiiHEPLAseWgpgiOd5XhxvcdHvYFDfAGrsrrH8FQ4Bhc5cul52jff8nHAuIc5NkPsHWdhdvG84DKc7gDsEs1/sIY9L2DplG61x+940NCCJnZpmew4kV8e3diK+9KXtiEXT9ardagC/e0YlvVb2F1ufHC1hLkqTmueci7fwteONwAK46g4cBvIy9iVToNFNah4pG/igYMk4BVW2qwnQcZbRFcuAcHtrnQZW3A4Re24P48te4esvNKsPUFN1xWlslqaMPJwdEii9K7rhl3LlmY/GRkm2FZwbYjWceHhBAywxk4WCnPd5RnSJohy4yCJ+tYwKhBS9cOlKpd08v9KmE1yh5aqZNTYQHltjuwiqX7oVN9uKBN90OHsdf969h2W6ZlsLcHNTkhFqt638d+L2ArW4u79F7cmr0Ud68ys/X1ou/CNXlkMsPoD3ws/52GtNZJCCEzz/TMWSm6DuPQkdOaAKMk/ikC3fxi1PGyQyWXIvfRZMUZNFauhpkFQl4Ro7X1kE7lijCG+3vBvhFex+3I0lv/rC+juM7P5v0Ygf4JeveEaSGW3MkCICGE3KDGGaz4K4EKYhPrhJpvmmnmbegctWhMMUo7K+X5U+UW/E+lDVJ4AH2ngpG/08b7aNqCw4F30ewqhyBXxNiwYT2KLfPZNlfg+ZNKDUKl2O56mcAASAgh08g0zVnx50/fx4+383ZWQZzqG4gEEzUHkirQyUNwB4rU2nf8eZMVj2zdi6BUUeJdtLTskypLINSIysIt2CPVbFSqywuwuc9iRG+96uBDbdHCyOonzFJYFierhkEIITPXOIPVQhTV+mIT6YSab5ppMQFivJTAEcLpQFCuip6NxZal7P/x5EAigau09HFs3etHf8sm9h1KtXE2bXEuVsR85xQYU46REEJmjmmas0pmNsx3/DWs8KNp33s679Pj1c6flxr+mqs7pdqAkTedRz/H+jPMvUWp7RdhMi/H/VYWIpta8c55ncoOwydRzxsip1XkqQRXTe4wFSEXS3KUyiSEEHLjmGHBiuV87irFD+3LEfL8A7Y1tKNHreo9iJ63f4FN6yrRhQdR+ejdUnX3yOuMWPCpq8XP9p7UVNbgb6jYh589t4flo1bjsdVLIgcr+05864elEEIvYPO2F/C2WgmDBcKedtRvcqCqC7BWrseqhFzkH3FpSNtQWmnwO4rhIAKnQ4mNnwkh5EYhyi5evCj29PSI3d3dvC97aRiTkbOi2yaw5TeK7sAn8sgMpL38iHi1o0YU+LYKm8SW/s/k8WxK0CvWWPk6IvsROywXy92nxSF5Xr6eIV+DaNWdlw+CaHV1a+ZnRvrFjhqbzryRQSjfI54dGpFn5j4RA+6Nmnk0+3a1Q3QKbJzNLQa0i2iMBNyijW2HzX2WbS0hhEwfSrp34sQJ8aOPPhJDoZA8JTMz4zad5XI22F9T3zJhEu7HjsNd6HA7pTezRwiwOnejzefFqyznFa2moNQG7IDbGZvHEcpdaO7owuGtq2LbbJkWoWhHMwIdbjit/PmczOqEu80H/6sVWBaTA2I5qLVb0MArbMSbtxIlZfkpGvxG246puTtCCLnBzOIRi/8xMDCAy5cvS0NhYaE0UZ5EJhV/jvYLrCvYh1UdxxJrEPJ3La4tggPbEThqRx5FK0LINMKbLXEsZ4UFCxZIQ05OjjQuE5T0XXf8OdtalNmCupVCIm/MMMNZ/RAFKkLIDYuSPyOQ36Jh8byB9phuQAbQ5f4XeG0/gMM60W22CCFk+qBgZQj8uVkZfsK7sHe/r1ahD59/D/uacuDaUUq5KkLIDY2SQMNYCOuPtmFt00s4KL0t4wo++FcPjpZV4rv5t0RmIYSQGxRVsCCEEDJpqIIFIYSQGwYFK0IIIYZHwYoQQojhUbAihBBieBSsCCGEGB4FK0IIIYZHwYoQQojhUbAihBBieBSsCCGEGB4FK0IIIYZHwYoQQojhUbAihBBieBSsCCGEGB4FK0IIIYZHwYoQQojhUbAihBBieBSsCCGEGB4FK0IIIYZHwYoQQojhUbAihBBieBSsCCGEGB4FK0IIIYZHwYoQQojhUbAihBBieBSsCCGEGB4FK0IIIYZHwYoQQojhUbAihBBieBSsCCGEGB4FK0IIIYZHwYoQQojhGS5YhXs8KJk1C7NmrYCj9XcIy+MThTHYuQ1mNq+5uhOD8lgymjCGe7pwsL5COnazlMFcgfqDv4Q/dE2eb/zUc1niQU/yE0kIIaMycM7qDDybXWg7P3GJJxnEOc93kGdZg41VjQjJYyWhRlRtfBAF5nWobj2HYXl0xKfo8TzKgpoZJZ5zKW4gCElENy1kIhg2WAlWK+4NvYDN/3Scck0TguWo/G583+FBSCiHyxvAkChClIeRoA9tbies8KJuw1a85L8iLzd2pjw72vn62+3IowJnQsg4GDcJWWXH0858hOoasHsCEk5yCScP7EMXHoTr8C+w9f48ZMtTOJOQj4ftz+G1lk0QcAQNB35LNwmEEMMw8P3uItz3o22wC0dQta01w+IDvecyZqypfgWH/KG4YqzYIq7PQ360qsvxZZrk5zjXEPK3or5ihby+Faiob0fPcJINC4fgP/QKqteY5fmTfX9q0Wd4j8LT86k8lgmfg6eErzvNornBD9He5GdZ1pW4+7Z58sh4syEsvxsr2F+hU324wFYa+f6bYXE087HwOm5Hlvqd8cfuJPZWl7DPBajuHNAv/hnsRLVZGRd/TGfBXFGPVt1jxM9pJzzS+mPn/Vz+ngl9djncg86D9XBsy2Sdg+jp3I96x8/QOfh7dFYXsO3kx+L3cdvOrwUPOnvi1qyeU36uB9mxaYpcP+ZtbH2aI8K3zVONNfJxiFyL+xPXh4HMt0HFz81bMcd71ppqeA75EYo7OTHn+XN23e+NbJv5v9Xi52x/siwOll9nvA5YsuT5LmuvA2k1cZRtZ8fi5FvY5qjHwc6euOLpVNjy2/4O9Qe7kv9GyfQiyi5evCj29PSI3d3dIh+tmZSZkbOi2yaw5TeK7sAn8sj0jQTcoo19t+DsEK+Kn4n9LZtEActFe0ufOCLPEzEiXu2oYdOUeRUj4pCvQbTK+5A4xK/rEzHg3sjGC6LN9aK408q3PXYZwb5P7PY+q7tOwd4i9sdumCgOnRbd5csT5o0My8Vy92lxSJ51NMrxSDie6nFm2+0+G3dsdFztEJ2CznpGEf1+7aB8Z/TYWZ3bRad67PJFZ8fF6LI2txhQNlDZDttOsXm3XTp/sevmw4Oiy3dZXoD7TAx26B9/wCY6XZXStNjrYCzYtRN4V2x2lavbldY6hwJiR7NLLJeOLxuEGrHj6v8ndjjz2Wd2vnc+G52mHQS76D6rWbt6TqP7FF1f5ACOBL1ijc41GhlsYk1Hv+ZauJj5Nkiuimfdyc4NOyble8SzQ9FvUc+ztVJ0OW3R+Sp/Lu6U9id2+cj1oGxbkutRvU7YvJeUa5cNQrnoan5XDGi+X5+yfr4c23/XG2JHYHxXBxkb5byfOHFC/Oijj8RQKCRPyYzBgxUz1C26+I9T2CS29H8mzRORJFip388u0IbjYlC9pq+KAW9D5Aer+fFHgxXfZ57oNoq+IP8ennC1aBJgPq1F/pFop8Xv52XR53qQjec/kGOaH5Xm+xMS46mg+fFanaK7JZ0fvEIT0GMCY7JjF5EyWEnLsER5T3f0HI30ix01kcROe05H+ltEu3TeWELlDaiBfiTYLe7RJo5jDVYjQdHXtltzruVtcx+O2Z9YLID6DotuzfdHjsFusc0XZMdIm1hqrx2GBTevEhCtDaJPGa9eu/L3a48Np/wW4q8tvv17nJHgFvM7GcM28GtbvtkTyhtEr5rA82v+mOiSbsLYulzd0fOgvaFh19Yeaf+jdK8DNkfk96t3sxU/bbRjrW8k6BPb3PJxUQZ+7bf5Yo8rmVTKsZ/5wYpdipEfT+wPJHpBxyVsuj8Mhd7dnCbBjfnRcpppCevTT8Aj3x+/rQpNQjDWhHUc9O/KeaLcLLa0tKW480wjWCUcuyTnQg1WerllRpmu3lAo3xHJrSUY6RNb7JFcbGbHlCe+74otcYmZUO4SmzuiATEBz0W1xAU23bt9TaDQuxbV7dbsl/rb0bt+kpUkKJRSCO05Gsc26JxPiXrzqMntKec5yU1Y0t+kNvcU81V6v9MIKQBpc7F8GC0ASTcj++RAqyw32s0ImSjKMR9vsJoGdbRMyM4vw0+cZnRV/XTUWmopa6CFB9B3Kih/SCSsugO3ZesdEgG2x+5F7qhH61P0Hj8GL1aj7KGVMRUYIti+3HYHVrEUR3kmNJVMwv3YcbgLLLEFS2zlsV7UOTZiw4b1KLbMj7S3ak18LpEaOz5la3GX7rFLQliHJ+77y8SHptlmWFYo28aE+3B8/3GWtvwADutCeaSG6S9x3xPr2BakS36uVHEH5lrWYIOjDl1YjnLXG2DBGsG9W/FIUWzlk8jzMvkZ6FwLijd8F3VdIRajXGCBDUPBvdj6iBV5mVw76nb70dT+YdxzMb3r5xJ87V6EsBHbHfci8anjbCy6rxRlQgje/e+jN+b8pb8N4d73sd/LDney85m9FHevMrMLuBd9F+KaldhK8dBdt8gf0jBvJUrK8tkleAzHezXPY5Xnq7YHsDp3jjwyQqoI9MhW7A1eRaDjDbAABHTVwbG+AOasJM/uTALyH34cW/f+O9gNCppd5Wyf+XW/DgXmm6Rnn5k9DyPXg96vy4AWwpppZQv+ELq1Fa1sUCtaZN0OhzemdZGGgBUWs06AycQw+gMfs/+b4bDcHH0wrR3mF6OOb8LpXvRfjwe/2XkoKv0Oat8N8qwzWE6BBa8WtLQ0w+1k97+8vdWGdXi84eTk/nhX5GJxOsFtOIjAaRYY7lyCHN3Z2Q3A4lypUshowudb4TDPh6X4m6hqPAN2Rw52R47gyGns3foYivJ0Kp6Ef4dWRySwRdqm2cDuyMHuyJMEtnhm3Llkoc4PLf3tlig3WkIuluTMlkfGUQJ9wrWV7jawoNzfi9NqRRqd63fWl1FcxwIJPkagf7xXyK0oKLGxX95x7D/eJ1eqCWPQ9w6aQqPdIM5DXtFjLACd1jS7OIPGqm9KN11mRyvOJ/y82P7mWfHI1r3snAfha4vctIUaq7Cx2IK55s1opXadhpVGapGKUmNHczGrAUEnwY6v1ZQB06Jv4Ke7NkHwPo/atlRvtmB3zq3bsEa6A97Acgwb5ERGYGnTdk2OYhKMknMzJCl4laK09BHYa9vZD9+LGiu7Wa2qxwFt7cPrJHyhD6eS3V9khCXEAR+OyusSnB24+m4t7A/nQ0j1Kxj+3+g+ygIbJ9Sg4+pR1Nq/gXwhScAYg7Ry2XLQniyRbbiGC3297LcyVUyYV3CflBs8HQjKN0fKNqzGY6uXpJVARZpd1OLdqx1wyj/v0FEfAqluBqXcFr9p+xAdTpa740K/QXcgWe1Icr2NM1hNpdlYZCtHpfUP8Gx+GV26QY8lSH43ntqwUy7a2cdyDEeku2BRDOLdnRtgmbg0JpFpIZbcaWZ/bIQ78Ekk55JsCO5A0bypOvzpv4HCJPzfeLJsNftrIu6cjYTdVVsKsFZJzOqKMT9JVewY2V9F4drlkb9DO1E8fy2qPW9N6GupkucaMzSOgBbZhtnIWZLLbutYrsZ9FiN61606+FBbpFMsmym5KDDU9A58/DetFPumykHGCYf8OMSr8iulFoywtgCWVDl3tWnJSjmnyAj3oNCSrFkHud7G+RNZiKJaX+xFPHIWbhtPEXQS7PEm0NkF+F59FayhPXhutw9D8ugopeHrcthb3sKrWx9nOYa/mdC74NSysdiylP1vtIReSYS0d7DTgylnCe5kl1Py3IdSdDU606JSuDN51sGZvoJS92Q861C2O83iZ6WIT+9ZkUzJhQpl96Egrd9Z/DYoxYJTeZ3IRYEhL9p9l+RnZqE09kF59rgCWeYCrI9/9uguxaKExdn+Ks8es8woWB//7HEXShdNVVpBMjXOYDXV2I9JrWzxD2ho/508XqYWw92Ory3/i7idYxfqB0fRlPSZ1USYDfMdfw0rf2C97z2dMnO2Df7nIw0mp/Tlu0pxC0vrmvbh4LkU3zz8Id5sYne2WArL4vE9wZsQ6kP4Vrz5gU7lmmEfdj+3J4OiK+VZRyQAtcQ/69ANQJpnHdIzvvhnHRUpGp8muRbC/4l39h1Ov7jLtASrH+M53uNoevNDnUByBR+82cpC6XKsLfxqXPBLfxtM5uW4n+9bUyve0Xt+M3wS9XoNlcdMuTZ5JY/fwCdVUMpHWclKnUokbJN5LupgPSoyefYo5aJeVyvVjO3ZI7nuWI5HYtyq64nUdjfydkbnjVaxjmlTwquutmiru+pVXddr7zGGaWp1YKO1s1Laf7Hv16tqHdfWKLaxs+a4xlSpTnV8oucypmpy0urKMuX6UatGR6ts8yrK0TY82nY//JimvmZSmvR2VrHXgrZ9WMxxHu23o6n2H9OGUNvOKqbK+Ri2Qa0Cz8Zn2s4qyTlVpyerDq9sp3CvaL1Xe+4V1M5qOlOO/Q3QzkpP9AfFt1M7b/IW/vwH7hU7dvPElX9WEtgJDlZM6rcMsO24Hm+w4Fii1t0QfTtDskEo3yV2xyXS0e3gQzrHTrPMuIIVl+qNCg+KO93b07hm0hFpezXhb7BwbopNMJUhvqH7qL+daDu9hHXxIeFtFEqwymAbOE3jbL0h6RssRjunyjoS5tPckOhdS2qQZgO9wWLaUc77DdDOSo9S2YJd3nF4W6Ltr7eB3TXKY9jlX+5Ci8+LV5++H9ZvfAcskMhTJofankkqYlLw2oi70ca3w778+hQ5mASsevoV+H1H5OcvWrxYpJltXxD9ezdhVdxzPlPuWjzXEL/MVJmHZfYX2Xa3RJ41ySLn9RVsXT1RWxVX3NfswtoseVIqvEaltu3P2i/KE7ibkFNSg9d9jZqaqPzZSgt8/oYMn5HwYvAtOKw+P1PIRVr+F2Ffpld4luE2mBahaEcz2xd3bO1ZubjN/2oFlmXSps60FGuf+zFYME8iWkzN25jpFYtmrU2nTVucrNVggQ2BoX9P3jSBTBuzeMTifwwMDODy5cvSUFhYKE2UJxFiYLwTzmewrHgPVrg7cdS+LCGhuz54s44HUFwHODuOTUzNuYwZYRvSxF9wvKwYdSvcCBylLmVmEt5siWM5KyxYsEAacnJypHGZoEuCTHOD+F+//RChpA1fifEpDYHz4ax+iAIV0UWXBTE4peF5Car3noxtEzXcg7frt2Bd1REkfR0TMT6lRqdgQ0nBrfJIQmJRsCIGp7xqy4u6Jwth5v0hKW9EmWuBjVdDFuxw/+IRuiOfVpSG6vw8FqKq60uw73oK1ilrKE+mG7oyiOHxxryv+H1oa3bFPaQfrWIBmR6Wo7zhJWxf/xVKkEhSVMGCEELIpKEKFoQQQm4YFKwIIYQYHgUrQgghhmecYMUbBZo1Nb3SGgpQ/fb/C0+Jmf39KDxj6n9JqZXE1tU5II+bXsI9HpTw41HiSa9jSjLFrtc1ln7XMIQYHeWsSFT43DgDPyE3HrpZnBrGCVbzilAb1PR9JQ2fIODeGJlucyMwEj/dh9r7/x/Y23kX7Qdgz5sTmfcGY8qzo50fj3Z6TQ0hZGaipI0QQojhTf9glbLoivcm6kE17yxOfs6VUe+u4fPo3FbClluBCs8ZzTLXEPK/BU81n6Y8PytBtaczSQd8+tTig/htV/cpvWcNicUQ/OWu22BWluedz7XyDuuUbeU947ZqumaXn21k3Q6H1DllMxyWmxO3a8yUHlr/DtsyeWYz3IPOg/VwbEvVUWXsc5nPQyexVzovcc+H1G7MlWvBjDXVr+CQP5Tk+Gp6lZXmT2eZ+OuNz980Shf46V6jmZ5TPXHrkMfGUJ4dj1qkpbwGix/n37Nj1an5PfD99iT2vBzzWx1kv6GmyH7Hd+TIzzvvpl4+HpF90+vJeQzboNL5Da+phueQP/aVXkzM7+tzdtz3RrbN/N9q8XO2P1kWB7x8Rq8DFv6GFT7f5dGOo7LtqX5jbJ5tf5eiY089/Bz/DI5kPV9PZ6LMKP1ZxVL6S2LbM2pfOfH9PaXqk0fbeZzyHfmis+OiNEaiLs/mrfFqOmv7TAx2PJu0T6H4vn5Smai+qhL7E1L6B2LLuxrF3ZoOCmMGtTM8zXGOGcZ7Dq+KgY43NB0kxh1jXZn2KRXtU8vq3K7pQFHzXUOnRXeyY6Dbv9go/UaxZewtfbHnJdX1JjwuOiv5tGTXmM4yCdddpueU0+lvLGV/YprvGPW60/SVtfNZTcemmiG+fy31uraJTldl9Phq+i5L3RecTazp6Nds1xi2QZKqf7QU/XVZK0WXpgNIofLn4k5tP13KIB1bZduS/IZG69dNMpY+ubR9g/F9cYnNHYG0+8+bDMpxmXGdL8Yaa7DS9naq7UiQBZruXfJFrcyvF6yUXnXjEwxG+b64H8FI8LjYIPeimk6AmUjJg1XkPMb2sMu3VUkQ4hPPiTl3Y+qhdUy99XLaQMsDVmPc/Mq55D/2NHtuVo8DW0bbI692mZjOIbXXm0tsUY817+G2UT+Aanpuju2RV7uMNiiO5ZzqBCs1AdQ7x6MksDG0CSk/7pqeuYcCole52dAGT/W48mXYud3THXs9DHWLLnm/Y86VtifkmM4ix7AN7CgoNyIZ94QsrSv2uHOJvz8uVeBP/6Zgan9Lk0PZBgpWet+n3LXodqMdH5ziPyt3XTqBilEuTL27ff2LdvKlDFZ6PcFqpsfsx7jOHc9FtcR1PT7a3WAkF9US92PM7G5Qc43onO/IsYlNfKI0CZfmOKQ+jzoJupLI6l5vbH39LaJdCoqaQKJcowlduEeoy4zrnOoFqxQJZVp3+wpNoNCbf6RPbLHzhF+zz+r1pXc+klyTKuWGQC/wjmEbkpwr9Vxqc3vK9RB/UyNLer0kPZ4619BopAC0T1NKwYfRAhC/8TkSU0oRCeq7xba4gDuZlO29QXsKTkXpG0eArWwt7kroUXQO8uwHWCT26XRGdxXnPE+jyHEUlpq9eH37/RCSHKFQ0164T8Y+uzBirTyhrBT3JfRGa0L24lyskD+Ni/xcqcI8H5biDXDUedmXlo/SQyt/TrMf9RV3YK5lDTY46tAl9Vz7BlhgQ3DvVjxSlJdhb8p65/tT9B4/Bi9Wo+yhlTrrY8fhtjuwiv2SQ6f6cEE+mSnPY3gAfaeC8oeIcPAM3u5iSYfu9cbWt+jreKIsX/7Eaa7R7eW6bxpXl/Eew/He2Gca4zunSq+8IXj3v49e9QLWbNNj9yI37es3yfymv8R9T6xjU/1oav8w7pmj3vm4BF+7FyFsxHbHvUh8LfFsLLqvVGe7ufS3Idz7PvazSzTZuUL2Uty9yswuiF70XYh7/mcrxUN33SJ/SMO8lSjRO4eDH6K9yc/W9wBW56ZZg9kkIP/hx7F177+D3eDJPUV7UedYhwLzTUmec86GkP83MT1fl7Pj11X3XawvMCPLXJHh87DrK+1Lcvq4hgt9vWPojO8z9LNEssjhYcsyt87HXJ2FTXml2OF6kF3MjagsZCdcqlhxEK2tRjzpAlZYzJPUhf41nG/dDPNcC4o3VqGRJXKRbvuDGEnR9Xj4fCscUmD7Jqoaz6hdpQdHTk9C1+PD6A98zP5XKozID9K1w/xi1PETfroX/fHnjwfi1lZ2blujFS3USigKJSCmut6ysdiyVP6bS+caVZb5GIF+bRI0AedUNxFVgoV+t/LJJduHDG+IlJsAIRdLcpJ09Z9thmUFu7NIOFfpbkMYw/29OM320uu4nf12464FafgyiutYIEk47mNxKwpKWL4ex7H/eJ98YzvWmwIF26c8ayQAjQTha9sNp1VgyVEVNhZbMNe8Ga3ndSrZZOeh6JGt2Bv8DEHfYbidLC/I0rCqjWtgmXsHHK2/k7fPuDI+VLGUGi2ak51Qo0wzLb7Wj6GcweuNbUB5JSqtQFfVT/GS/4o8TesW5G99HYGON8Cy5Owzv7vZiA0b+EnPYnc4L+BkyhpZM8UgAt2/iQR25MPZ8SHerf0OHs4XUlxULLEI+HBUTusFZweuvlsL+8P5SXOw46KTC0oPy/m1bsMaHog3bGDndgM28n6zWLJjdW6XEofxUYLo9aIkopoEWTlWmdztp0mba01qOIjAae1NwMSKbINykzBVornY04GgnOtRtiHTmwIdUm7rO6h990N0OOWce+g36A6kqgXIc1vfgL32KK521LBrgDuDo93/Oy5XZjyTkURMW0L5HnS+UIt/rK+CFUfQ8C+dOK/7I5uHvKLHWJb8NETxKgtcbWiR+1oKNW5G4ZOv3QAt2efBUniPfLH7UVe8cpRq3Ry7K7QUYK2c1ofqijE/SXXhCWFaiCV3mtkfG+EOfMIfwiYfgjtQJBXHsYDqd+OpDTvlosl9aGk5Ah+7IxXFIN7duQGWJDf+E2syA5qSiMYXj7FwfOcS5ExwqjBh6xxHQItsw2zkLMll1yzL1bjPYkTvOlAHvccEYyDnYkNN78DHb9TDfTi+/3jqHGS61OYYK+XcICPcg0JLqtIJpcr+Wswv3ikH7uVYW/jVSSqBmTjjvIQWoqjWF3uSR87CbeOpkU4CoSYIk0m5IIM41Tegk3Dydgi8rUn8e9ryUVbxIJZl/xmy7yrFD+3LEfL8A/6+bbTsMQ9cD6OUZ7H7+9DCltN7zjDzzMai0l0Zl4XzjhTdQR7g5ZxpVx0c6wtgzkrWlmY8khWlpXIJJw/skwKVveUtvLr1cZSW/g3yhWQJy2jXGxcfeJTtSrGMWiw2SV29xySif5SLMtlvoGSlzvOisVCK3NIstlSK+PSeFcnCF/pwiqWuQtl9KEgrHYnfBqVYUJvTmWxyLjbkRbvvUvSmIO19iMf2SWn/l2VGwfrvoq6Lra/cheaOAIaCu1Ca8DyTUZ8t3wRzwbqEZ8vuUuN3fGn07RuDZA+QZeEeHKzdwy7XpbAsTvITMn0F63/6j7ALZ+DZ/DK61KLLUV5Iavoibll4k/zhBqGWhfMA1JJQFq4fgJScaeRhcYvbyXKyZ9BY9U0UW+Zn1nA7pdkw3/HXbN0sB7HvPZ1cMs9FPR9p4FktNzxWiw5vx9eW/0XcD4TN/8FRNMU8s9Jcb01H8YFOgA6ffw/7+AN11Rzkrn4ANnYV6i8T/R5hbQEsehUBxk2TiHaflO/2xxIYkxzb8H/inX2H0y/uMi3B6sdWsz+Oo+nND3XO/RV88GYrC6h6uYD0t8FkXo77+TOepla8o/dsZ/gk6vUaKo+ZNhf7G/jGelMg5aJeVyslRYql5Z6y+XMo3UpJPBf1y0hgy/DZsiGxHI9kZrWz0rSTiml7cVZskatWC/YWsV8aHV91XaFZh16bi/j2Ftq2IMm2dZIkVp1NUT1ZpiyjX3Vdv4puuq5PO6sk+6pWX063nVV0fTHXDt++Fpem4ane9caOZ9I2U3wZ7TUWrXad0BZQXUa7XWM5p6McG7lqtWC1ivfGLJcOTbXxuGM7EuwW9yT8zviEUdIGpao3X5+2fZv2txVT5XwM26BWgWfjM21nleR3HU0TklSHV7ZTuFe03sv2P0lzBT3UzipqhgYrJtVbC2LaqSQLVoz649EmGtGESX9IP6FXL/L4bVf3KXnCpJX4YxpjsNIeb73tytjUvsEi6b6mfCsCS+Ti3mCRfH6eiHrFjt3KMdJ8Z4q3UfBg1Oxaz/6O23+1EWziMonbNQnBKiaxz/RcK8uy7XRuik1MlSG+PdioaUO03VvCuviQ8DaKMWwDl/LNIfx8JXmDxahpkLyOhPmibcjS/U1HxAfjG/sNFtMk/zcG2cthf6EFHVIRk0LONvsb9Mt1481bjR/t2gQhprKFUhvQHVcrTGkn9Dq25mfQFsNQ5iB37RY0SLUcJ0JscV+zazWy5CnJaarmys/D1o6+UEom4X7sONwVdy0oxSFevGpfHlN8wuff/nob2J25PIbNXe5CC5/36fth/cZ3wIKZPEVmWoSi7XvAcl9SRZsIfr11oOuFb2PlrV+Qx2lkr8JWvl1y5ZyI5Ns18ZRagcyYawHehJySGrzua9T8HvhvoSX935mKnfv8LTistiNSKL/bF2Ffpld4luE28HO1oznxNyw3o/C/WoFlmRSNmZZi7XM/1pzDeEpRIP87w1qAWatHabOo54tYO642i8Y0i0cs/sfAwAAuX74sDYWFhdJEeRIhZEbilY2ewbLiPVjh7sRR+7L0E1Gp2coDKK4DnB3HJqbmXMaMsA1p4i8IXlaMuhVuBI7eWF358GZLHMtZYcGCBdKQk5MjjcvEDXTICCGx5IbAwpOofiSPEoNJozQEzoez+iHqc26M6LARckPiNSGb8FydfxzVqElahn3Y/dwedlMwSc0QbhB0hRJyI1H7lMrC3IJKdAmbsOtHqyeobRWJUpq5zMKsuYWo6voS7Lue0n0PJEkPHTlCblRCORrafoz1GVWCIJlbjvKGl7B9vfEb3hoZVbAghBAyaaiCBSGEkBsGBStCCCGGR8GKEEKI4VGwIoQQYngUrAghhBgeBStCCCGGR8GKEEKI4VGwIoQQYngUrAghhBgeBStCCCGGR8GKEEKI4VGwIoQQYngUrAghhBgeBStCCCGGR8GKEEKI4VGwIoQQYngUrAghhBgeBStCCCGGR8GKEEKI4VGwIoQQYngUrAghhBgeBStCCCGGR8GKEEKI4VGwIoQQYngUrAghhBgeBStCCCGGN0tk+B8DAwO4fPmyNBQWFkoTCSGEkIlw4sQJLFiwQBpycnLksemjnBUhhBDDi8lZXblyRRr+8Ic/4NKlSxgaGsJ//dd/4U9/+hM+//xzaQFCCCEklaysLHzhC1/AzTffjLlz50q5qVtvvVXNWf3FX/yFPGf61GDFA9TVq1elgf/NiwOHh4fxxz/+EdeuXcPIyIi0ACGEEJKKyWTC7NmzpWCVnZ2N+fPn40tf+hJuueUWafjyl78sz5k+NVjx4DQ4OCgN/G+ew+K5qk8++UTKWVGwIoQQkg4erHjOas6cOfjiF7+IefPmSTkqHrSUwJUpNVgRQgghRkUVLAghhBgeBStCCCEGB/z/thf5cOk7raQAAAAASUVORK5CYII=;" parent="1" vertex="1">
          <mxGeometry x="300" y="390" width="250" height="187.35" as="geometry" />
        </mxCell>
        <mxCell id="Lnma7wc2gDaTbuE2-gPJ-1" value="Clock" style="swimlane;fontStyle=1;align=center;verticalAlign=top;childLayout=stackLayout;horizontal=1;startSize=26;horizontalStack=0;resizeParent=1;resizeParentMax=0;resizeLast=0;collapsible=1;marginBottom=0;whiteSpace=wrap;html=1;" vertex="1" parent="1">
          <mxGeometry x="345" y="70" width="160" height="240" as="geometry" />
        </mxCell>
        <mxCell id="Lnma7wc2gDaTbuE2-gPJ-2" value="- _second: Counter&lt;br&gt;- _minute: Counter&lt;br&gt;- _hour: Counter" style="text;strokeColor=none;fillColor=none;align=left;verticalAlign=top;spacingLeft=4;spacingRight=4;overflow=hidden;rotatable=0;points=[[0,0.5],[1,0.5]];portConstraint=eastwest;whiteSpace=wrap;html=1;" vertex="1" parent="Lnma7wc2gDaTbuE2-gPJ-1">
          <mxGeometry y="26" width="160" height="84" as="geometry" />
        </mxCell>
        <mxCell id="Lnma7wc2gDaTbuE2-gPJ-3" value="" style="line;strokeWidth=1;fillColor=none;align=left;verticalAlign=middle;spacingTop=-1;spacingLeft=3;spacingRight=3;rotatable=0;labelPosition=right;points=[];portConstraint=eastwest;strokeColor=inherit;" vertex="1" parent="Lnma7wc2gDaTbuE2-gPJ-1">
          <mxGeometry y="110" width="160" height="8" as="geometry" />
        </mxCell>
        <mxCell id="Lnma7wc2gDaTbuE2-gPJ-4" value="+ Clock (int second minute hour)&lt;br&gt;+ Reset()&lt;br&gt;+ Tick()" style="text;strokeColor=none;fillColor=none;align=left;verticalAlign=top;spacingLeft=4;spacingRight=4;overflow=hidden;rotatable=0;points=[[0,0.5],[1,0.5]];portConstraint=eastwest;whiteSpace=wrap;html=1;" vertex="1" parent="Lnma7wc2gDaTbuE2-gPJ-1">
          <mxGeometry y="118" width="160" height="122" as="geometry" />
        </mxCell>
        <mxCell id="Lnma7wc2gDaTbuE2-gPJ-6" value="" style="endArrow=diamondThin;endFill=1;endSize=24;html=1;rounded=0;exitX=0.503;exitY=0.993;exitDx=0;exitDy=0;exitPerimeter=0;entryX=0.5;entryY=0;entryDx=0;entryDy=0;" edge="1" parent="1" source="Lnma7wc2gDaTbuE2-gPJ-4" target="GWEOKNoBrJnXbYC3_1-h-5">
          <mxGeometry width="160" relative="1" as="geometry">
            <mxPoint x="350" y="360" as="sourcePoint" />
            <mxPoint x="510" y="360" as="targetPoint" />
          </mxGeometry>
        </mxCell>
        <mxCell id="Lnma7wc2gDaTbuE2-gPJ-7" value="Counter, Increment, Reset, Name, Ticks" style="text;html=1;strokeColor=none;fillColor=none;align=center;verticalAlign=middle;whiteSpace=wrap;rounded=0;" vertex="1" parent="1">
          <mxGeometry x="445" y="330" width="195" height="30" as="geometry" />
        </mxCell>
      </root>
    </mxGraphModel>
  </diagram>
</mxfile>
